<?xml version="1.0" encoding="UTF-8" standalone="no"?>
<!DOCTYPE svg PUBLIC "-//W3C//DTD SVG 1.1//EN" "http://www.w3.org/Graphics/SVG/1.1/DTD/svg11.dtd">
<svg width="100%" height="100%" viewBox="0 0 90 90" version="1.1" xmlns="http://www.w3.org/2000/svg" xmlns:xlink="http://www.w3.org/1999/xlink" xml:space="preserve" xmlns:serif="http://www.serif.com/" style="fill-rule:evenodd;clip-rule:evenodd;stroke-linejoin:round;stroke-miterlimit:2;">
    <g id="Layer_1-2">
        <g>
            <path d="M44.79,89.08C20.38,89.08 0.5,69.21 0.5,44.79C0.5,20.38 20.38,0.5 44.79,0.5C69.21,0.5 89.08,20.38 89.08,44.79C89.08,69.21 69.21,89.08 44.79,89.08ZM44.79,4.21C22.42,4.21 4.21,22.42 4.21,44.79C4.21,67.17 22.46,85.38 44.79,85.38C67.13,85.38 85.38,67.13 85.38,44.79C85.38,22.46 67.17,4.21 44.79,4.21Z" style="fill:white;fill-rule:nonzero;stroke:white;stroke-width:1px;"/>
            <path d="M44.79,89.08C30.54,89.08 19.42,69.58 19.42,44.79C19.42,20 30.54,0.5 44.79,0.5C59.04,0.5 70.17,20 70.17,44.79C70.17,69.58 59.04,89.08 44.79,89.08ZM44.79,4.21C32.83,4.21 23,22.46 23,44.79C23,67.13 32.75,85.38 44.79,85.38C56.83,85.38 66.58,67.13 66.58,44.79C66.58,22.46 56.75,4.21 44.79,4.21Z" style="fill:white;fill-rule:nonzero;stroke:white;stroke-width:1px;"/>
            <path d="M9.5,19.42L80.08,19.42L80.08,23.12L9.5,23.12L9.5,19.42ZM9.5,66.54L80.08,66.54L80.08,70.25L9.5,70.25L9.5,66.54ZM2.33,42.96L87.21,42.96L87.21,46.67L2.33,46.67L2.33,42.96Z" style="fill:white;fill-rule:nonzero;stroke:white;stroke-width:1px;"/>
            <rect x="42.96" y="2.33" width="3.71" height="84.88" style="fill:white;fill-rule:nonzero;stroke:white;stroke-width:1px;"/>
        </g>
    </g>
</svg>
